<?xml version="1.0" encoding="utf-8"?>
<!-- Generator: Adobe Illustrator 27.2.0, SVG Export Plug-In . SVG Version: 6.00 Build 0)  -->
<svg version="1.1"
	 id="svg1035" xmlns:svg="http://www.w3.org/2000/svg" xmlns:sodipodi="http://sodipodi.sourceforge.net/DTD/sodipodi-0.dtd" xmlns:inkscape="http://www.inkscape.org/namespaces/inkscape" inkscape:version="1.1 (c68e22c387, 2021-05-23)"
	 xmlns="http://www.w3.org/2000/svg" xmlns:xlink="http://www.w3.org/1999/xlink" x="0px" y="0px" viewBox="0 0 750 290.5"
	 style="enable-background:new 0 0 750 290.5;" xml:space="preserve">
<style type="text/css">
	.st0{fill:#EC1B2E;}
</style>
<sodipodi:namedview  bordercolor="#666666" borderopacity="1.0" id="namedview1037" inkscape:current-layer="layer1" inkscape:cx="286.5" inkscape:cy="153.5" inkscape:document-units="mm" inkscape:pagecheckerboard="0" inkscape:pageopacity="0.0" inkscape:pageshadow="2" inkscape:window-height="1002" inkscape:window-maximized="1" inkscape:window-width="1920" inkscape:window-x="-8" inkscape:window-y="-8" inkscape:zoom="1" pagecolor="#ffffff" showgrid="false">
	</sodipodi:namedview>
<g id="layer1" transform="translate(-71.759628,-108.15412)" inkscape:groupmode="layer" inkscape:label="Layer 1">
	<g id="g850" transform="matrix(1.9715752,0,0,-1.9715752,-727.68257,1636.1663)">
		<g>
			<g id="g852">
				<g id="g858" transform="translate(503.42,733.249)">
					<path id="path860" d="M179.7-76.6v-17.5h8.1c1.4,0,2.5,0.2,3.5,0.5c1,0.3,1.8,0.7,2.3,1.3c0.6,0.5,1,1.2,1.4,2.1
						c0.3,0.9,0.5,1.7,0.6,2.6c0.1,0.9,0.1,1.9,0.1,3.1c0,1.5-0.1,2.8-0.3,3.8c-0.2,1-0.5,2-1.1,2.9c-0.5,0.9-1.3,1.6-2.4,2
						c-1.1,0.4-2.5,0.7-4.2,0.7h-6.4C180.2-75.1,179.7-75.6,179.7-76.6 M179.7-97.4v-8.2H175v29.7c0,2.7,1.6,4,4.8,4h8.8
						c4.5,0,7.6-1.1,9.4-3.2c1.8-2.1,2.7-5.3,2.7-9.5c0-4.3-0.9-7.5-2.7-9.6c-1.8-2.1-4.9-3.2-9.4-3.2H179.7z"/>
				</g>
				<g id="g862" transform="translate(513.828,730.464)">
					<path id="path864" d="M198.8-81.7c0-3.6,0.8-6.2,2.3-7.7c1.5-1.5,4.2-2.2,7.9-2.2c3.7,0,6.4,0.7,7.9,2.2c1.5,1.5,2.3,4,2.3,7.7
						c0,3.6-0.8,6.1-2.3,7.5c-1.5,1.4-4.1,2.1-7.9,2.1c-3.8,0-6.4-0.7-7.9-2.1C199.5-75.6,198.8-78.2,198.8-81.7 M224-81.7
						c0-4.8-1.2-8.2-3.5-10.2c-2.3-2-6.2-3-11.5-3c-5.3,0-9.2,1-11.5,3c-2.3,2-3.5,5.4-3.5,10.2c0,4.7,1.2,8.1,3.5,10
						c2.3,1.9,6.2,2.9,11.5,2.9c5.4,0,9.2-1,11.5-2.9C222.8-73.7,224-77,224-81.7"/>
				</g>
				<g id="g866" transform="translate(524.119,725.93)">
					<path id="path868" d="M217.7-90.1v3.3h16.7c2.4,0,3.5,1.1,3.5,3.2c0,0.5-0.1,0.8-0.2,1.2c-0.1,0.3-0.4,0.6-0.7,0.9
						c-0.4,0.3-0.7,0.5-0.9,0.6c-0.2,0.2-0.7,0.3-1.5,0.6c-0.8,0.2-1.3,0.4-1.7,0.4c-0.4,0.1-1.1,0.2-2.2,0.5l-5.4,1.2
						c-2.9,0.6-4.9,1.5-6.2,2.6c-1.3,1.1-1.9,2.7-1.9,4.8c0,4.2,2.6,6.4,7.9,6.4H241v-3.3h-15.4c-1.4,0-2.3-0.2-2.9-0.7
						c-0.6-0.5-0.9-1.3-0.9-2.4c0-1.3,0.4-2.2,1.3-2.8c0.9-0.6,2.3-1.1,4.2-1.5l5.8-1.3c1.8-0.4,3.2-0.7,4.1-1
						c0.9-0.3,1.9-0.7,2.8-1.2c1-0.5,1.7-1.2,2.1-2c0.4-0.8,0.6-1.8,0.6-3c0-2.1-0.5-3.7-1.6-4.8c-1.1-1.1-3-1.6-5.6-1.6H217.7z"/>
				</g>
				<g id="g870" transform="translate(539.683,725.93)">
					<path id="path872" d="M246.2-90.1h-3.5c-3.5,0-5.9,0.7-7.3,2c-1.4,1.3-2.1,3.4-2.1,6.2v14.1H229v3.3h4.3v8.2h4.6v-8.2h8.2v-3.3
						H238v-13.8c0-1.9,0.5-3.3,1.4-4c0.9-0.8,2.6-1.1,4.8-1.1h1.9V-90.1z"/>
				</g>
				<g id="g874" transform="translate(436.509,769.489)">
					<path id="path876" class="st0" d="M56.9-10.1h-6.3c-2.5,0-4.6-2-4.6-4.6v-46.9c0-2.5,2-4.6,4.6-4.6h6.3c2.5,0,4.6,2,4.6,4.6
						v46.9C61.5-12.2,59.4-10.1,56.9-10.1"/>
				</g>
				<g id="g878" transform="translate(428.474,769.489)">
					<path id="path880" class="st0" d="M42.2-10.1c-4,0-7.3-2.4-9-5.8L16.4-51.7c-0.4-0.8-1.2-2.2-1.9-2.2c-0.7,0-1.5,1.4-1.9,2.2
						L-4.2-16c-1.6,3.4-5,5.8-9,5.8H-23L3.7-61.8c2.6-5.1,8.1-5,10.8-5c3.8,0,8.3,0.2,10.7,5l26.7,51.7H42.2z"/>
				</g>
				<g id="g882" transform="translate(532.527,772.519)">
					<path id="path884" class="st0" d="M233.1-4.6c0,2.5-2,4.6-4.6,4.6h-6.3c-2.5,0-4.6-2-4.6-4.6v-46.3c0-7.1,2.5-11.2,7-14.2
						c4.4-2.9,9.4-4.1,18.8-4.1h5.1c2.5,0,4.6,2,4.6,4.6v5h-3.8c-2.8,0-8.6,0.1-12,2.4c-4.5,3-4.1,8.2-4.1,12.1V-4.6z"/>
				</g>
				<g id="g886" transform="translate(497.608,753.079)">
					<path id="path888" class="st0" d="M169-40.3c-2.8,0-8.6,0.1-12,2.4c-4.5,3-4.1,8.2-4.1,12.1v22.5h15c2.5,0,4.6,2,4.6,4.6v4.9
						h-19.6v8.6c0,2.5-2,4.6-4.6,4.6H142c-2.5,0-4.6-2-4.6-4.6V6.3h-32.2v8.6c0,2.5-2,4.6-4.6,4.6h-6.3c-2.5,0-4.6-2-4.6-4.6V6.3
						h-9.6V1.3c0-2.5,2-4.6,4.6-4.6h5.1v-28.2c0-7.1,2.5-11.2,7-14.2c4.4-2.9,9.4-4.1,18.8-4.1h5.1c2.5,0,4.6,2,4.6,4.6v5h-3.8
						c-2.8,0-8.6,0.1-12,2.4c-4.5,3-4.1,8.2-4.1,12.1v22.5h32.2v-28.2c0-7.1,2.5-11.2,7-14.2c4.4-2.9,9.4-4.1,18.8-4.1h5.1
						c2.5,0,4.6,2,4.6,4.6v5H169z"/>
				</g>
				<g id="g890" transform="translate(464.227,751.332)">
					<path id="path892" class="st0" d="M107.8-43.5v5H73.5c-5.7,0-12.2,0.6-14.1,6.7c-0.5,1.7-0.9,5.3-0.9,7.7h40.7
						c2.8,0,5.4,0.4,7.5,2.1c2.9,2.3,3.3,5.6,3.3,8.5c0,7.1-1.7,14.1-9.9,18.2C93.6,7.9,85.2,8.2,77,8.2c-6.6,0-18.5,0-26.2-5.3
						c-7.7-5.3-8.3-13-8.3-23.5c0-7.4,0.4-15.1,5-20.4c5.8-6.6,14.3-7.1,21.4-7.1h34.3C105.7-48,107.8-46,107.8-43.5 M94-11.3
						c0-1.5-0.4-3.3-3.4-3.3h-22c-5.6,0-10.1-2.6-10.1-5.7v5.7c0.1,3.7,0,6.8,3.2,9.6c4.2,3.8,10.6,3.7,14.7,3.7
						c4.4,0,9.4-0.2,13.2-2.5C91.8-5.2,94-7.8,94-11.3"/>
				</g>
				<g id="g894" transform="translate(523.202,751.332)">
					<path id="path896" class="st0" d="M216-43.5v5h-34.2c-5.7,0-12.2,0.6-14.1,6.7c-0.5,1.7-0.9,5.3-0.9,7.7h40.7
						c2.8,0,5.4,0.4,7.5,2.1c2.9,2.3,3.3,5.6,3.3,8.5c0,7.1-1.7,14.1-9.9,18.2c-6.5,3.3-14.9,3.6-23.1,3.6c-6.6,0-18.5,0-26.2-5.3
						c-7.7-5.3-8.3-13-8.3-23.5c0-7.4,0.4-15.1,5-20.4c5.8-6.6,14.3-7.1,21.4-7.1h34.3C213.9-48,216-46,216-43.5 M202.2-11.3
						c0-1.5-0.4-3.3-3.4-3.3h-22c-5.6,0-10.1-2.6-10.1-5.7v5.7c0.1,3.7,0,6.8,3.2,9.6c4.2,3.8,10.6,3.7,14.7,3.7
						c4.4,0,9.4-0.2,13.2-2.5C200-5.2,202.2-7.8,202.2-11.3"/>
				</g>
				<g id="g898" transform="translate(436.509,775.021)">
					<path id="path900" class="st0" d="M56.9,0h-6.3C48.1,0,46-2,46-4.6v-1.3v-9.9h0.1c0.4,2.6,3.4,5.3,7.7,5.3h3.2
						c2.5,0,4.6,2,4.6,4.6v1.3C61.5-2,59.4,0,56.9,0"/>
				</g>
			</g>
		</g>
	</g>
</g>
</svg>
